<?xml version="1.0" encoding="UTF-8" standalone="no"?>
<svg
   xmlns:dc="http://purl.org/dc/elements/1.1/"
   xmlns:cc="http://creativecommons.org/ns#"
   xmlns:rdf="http://www.w3.org/1999/02/22-rdf-syntax-ns#"
   xmlns:svg="http://www.w3.org/2000/svg"
   xmlns="http://www.w3.org/2000/svg"
   xmlns:sodipodi="http://sodipodi.sourceforge.net/DTD/sodipodi-0.dtd"
   xmlns:inkscape="http://www.inkscape.org/namespaces/inkscape"
   width="273"
   height="71"
   viewBox="0 0 273 71"
   fill="none"
   version="1.1"
   id="svg3801"
   sodipodi:docname="spira.svg"
   inkscape:version="0.92.5 (2060ec1f9f, 2020-04-08)">
  <metadata
     id="metadata3807">
    <rdf:RDF>
      <cc:Work
         rdf:about="">
        <dc:format>image/svg+xml</dc:format>
        <dc:type
           rdf:resource="http://purl.org/dc/dcmitype/StillImage" />
        <dc:title></dc:title>
      </cc:Work>
    </rdf:RDF>
  </metadata>
  <defs
     id="defs3805" />
  <sodipodi:namedview
     pagecolor="#ffffff"
     bordercolor="#666666"
     borderopacity="1"
     objecttolerance="10"
     gridtolerance="10"
     guidetolerance="10"
     inkscape:pageopacity="0"
     inkscape:pageshadow="2"
     inkscape:window-width="1848"
     inkscape:window-height="1016"
     id="namedview3803"
     showgrid="false"
     inkscape:zoom="6.1062271"
     inkscape:cx="98.908351"
     inkscape:cy="35.5"
     inkscape:window-x="72"
     inkscape:window-y="27"
     inkscape:window-maximized="1"
     inkscape:current-layer="svg3801" />
  <path
     d="M13.41 70.78C18.27 70.78 23.13 69.7 27 67C33.21 62.59 34.65 55.75 34.65 52.06C34.65 44.86 32.13 39.28 21.51 30.91L18.99 28.93C10.35 22.18 8.01 18.94 8.01 13.81C8.01 7.23997 12.87 3.36997 19.08 3.36997C27.36 3.36997 29.79 7.14997 30.33 8.13997C30.87 9.12997 31.41 11.56 31.5 12.64C31.59 13.36 31.68 13.81 32.22 13.81C32.67 13.81 32.85 13.18 32.85 11.74C32.85 5.61997 33.21 2.64997 33.21 2.19997C33.21 1.74997 33.03 1.56997 32.31 1.56997C31.59 1.56997 30.87 1.47997 29.16 1.11997C26.91 0.579971 24.3 0.219971 20.79 0.219971C9.36 0.219971 2.16 6.78997 2.16 16.42C2.16 22.54 4.32 28.12 13.86 35.95L17.91 39.28C25.65 45.67 28.26 49.27 28.26 55.48C28.26 61.24 24.03 67.45 15.39 67.45C9.36 67.45 3.42 64.93 2.07 58.27C1.8 57.01 1.8 55.75 1.8 54.94C1.8 54.22 1.71 53.95 1.17 53.95C0.72 53.95 0.54 54.4 0.45 55.39C0.36 56.83 0 60.43 0 64.93C0 67.36 0.0899988 67.72 1.35 68.35C5.04 70.15 9.18 70.78 13.41 70.78Z"
     fill="white"
     id="path3791" />
  <path
     d="M58.4381 43.42C58.4381 52.06 58.4381 59.17 57.9881 62.95C57.6281 65.56 57.1781 67.54 55.3781 67.9C54.5681 68.08 53.4881 68.26 52.6781 68.26C52.1381 68.26 51.9581 68.53 51.9581 68.8C51.9581 69.34 52.4081 69.52 53.3981 69.52C56.0981 69.52 61.7681 69.25 62.0381 69.25C62.4881 69.25 68.1581 69.52 73.1081 69.52C74.0981 69.52 74.5481 69.25 74.5481 68.8C74.5481 68.53 74.3681 68.26 73.8281 68.26C73.0181 68.26 71.0381 68.08 69.7781 67.9C67.0781 67.54 66.5381 65.56 66.2681 62.95C65.8181 59.17 65.8181 52.06 65.8181 43.42V6.42997C65.8181 5.52997 65.9981 4.89997 66.5381 4.71997C67.3481 4.35997 68.8781 4.17997 70.4081 4.17997C72.4781 4.17997 77.9681 3.81997 82.7381 8.67997C87.5081 13.54 87.7781 19.57 87.7781 22.54C87.7781 30.82 80.9381 37.21 72.2081 37.21C70.3181 37.21 69.7781 37.3 69.7781 38.02C69.7781 38.47 70.3181 38.65 70.7681 38.65C71.2181 38.74 72.2081 38.74 72.6581 38.74C85.4381 38.74 94.7981 30.1 94.7981 17.32C94.7981 12.55 92.2781 8.49997 90.2981 6.60997C88.8581 5.25997 84.8081 1.47997 73.5581 1.47997C69.4181 1.47997 64.1981 1.74997 62.2181 1.74997C61.4981 1.74997 56.0981 1.47997 52.0481 1.47997C51.0581 1.47997 50.6081 1.65997 50.6081 2.19997C50.6081 2.55997 50.9681 2.73997 51.3281 2.73997C52.1381 2.73997 53.6681 2.82997 54.3881 3.00997C57.3581 3.63997 58.0781 5.07997 58.2581 8.13997C58.4381 11.02 58.4381 13.54 58.4381 27.58V43.42Z"
     id="path3793"
     fill="white"
     style="fill:#420af2;fill-opacity:1" />
  <path
     d="M122.424 27.58C122.424 13.54 122.424 11.02 122.604 8.13997C122.784 4.98997 123.504 3.45997 125.934 3.00997C127.014 2.82997 127.554 2.73997 128.184 2.73997C128.544 2.73997 128.904 2.55997 128.904 2.19997C128.904 1.65997 128.454 1.47997 127.464 1.47997C124.764 1.47997 119.094 1.74997 118.644 1.74997C118.194 1.74997 112.524 1.47997 109.554 1.47997C108.564 1.47997 108.114 1.65997 108.114 2.19997C108.114 2.55997 108.474 2.73997 108.834 2.73997C109.464 2.73997 110.634 2.82997 111.624 3.09997C113.604 3.54997 114.504 5.07997 114.684 8.13997C114.864 11.02 114.864 13.54 114.864 27.58V43.42C114.864 52.06 114.864 59.17 114.414 62.95C114.054 65.56 113.604 67.54 111.804 67.9C110.994 68.08 109.914 68.26 109.104 68.26C108.564 68.26 108.384 68.53 108.384 68.8C108.384 69.34 108.834 69.52 109.824 69.52C112.524 69.52 118.194 69.25 118.644 69.25C119.094 69.25 124.764 69.52 129.714 69.52C130.704 69.52 131.154 69.25 131.154 68.8C131.154 68.53 130.974 68.26 130.434 68.26C129.624 68.26 127.644 68.08 126.384 67.9C123.684 67.54 123.144 65.56 122.874 62.95C122.424 59.17 122.424 52.06 122.424 43.42V27.58Z"
     fill="white"
     id="path3795" />
  <path
     d="M154.503 43.42C154.503 52.06 154.503 59.17 154.053 62.95C153.693 65.56 153.243 67.54 151.443 67.9C150.633 68.08 149.553 68.26 148.743 68.26C148.203 68.26 148.023 68.53 148.023 68.8C148.023 69.34 148.473 69.52 149.463 69.52C152.163 69.52 157.833 69.25 157.923 69.25C158.373 69.25 164.043 69.52 168.993 69.52C169.983 69.52 170.433 69.25 170.433 68.8C170.433 68.53 170.253 68.26 169.713 68.26C168.903 68.26 166.923 68.08 165.663 67.9C162.963 67.54 162.423 65.56 162.153 62.95C161.703 59.17 161.703 52.06 161.703 43.42V41.26C161.703 40.81 161.883 40.54 162.333 40.54L173.403 40.72C173.943 40.72 174.213 40.9 174.573 41.26C176.373 43.6 180.603 49.63 184.383 54.58C189.513 61.33 192.663 65.74 196.533 67.81C198.873 69.07 201.123 69.52 206.163 69.52H212.553C214.173 69.52 214.713 69.34 214.713 68.8C214.713 68.53 214.353 68.26 213.903 68.26C213.363 68.26 212.103 68.26 210.393 67.99C208.143 67.63 204.273 66.64 199.413 61.51C194.193 55.93 188.073 47.92 180.693 38.47C188.793 31 191.583 24.34 191.583 17.68C191.583 11.47 187.623 7.05997 185.373 5.43997C180.603 2.01997 174.573 1.47997 168.903 1.47997C166.113 1.47997 159.273 1.74997 158.283 1.74997C157.833 1.74997 152.163 1.47997 148.113 1.47997C147.123 1.47997 146.673 1.65997 146.673 2.19997C146.673 2.55997 147.033 2.73997 147.393 2.73997C148.203 2.73997 149.733 2.82997 150.453 3.00997C153.423 3.63997 154.143 5.07997 154.323 8.13997C154.503 11.02 154.503 13.54 154.503 27.58V43.42ZM161.703 5.97997C161.703 5.43997 161.973 5.07997 162.423 4.89997C163.323 4.62997 165.753 4.35997 168.453 4.35997C178.083 4.35997 184.023 11.11 184.023 22.36C184.023 29.2 181.683 34.06 178.533 36.22C176.463 37.66 173.943 37.93 171.783 37.93C167.823 37.93 163.683 37.3 162.333 36.49C161.883 36.22 161.703 35.86 161.703 35.41V5.97997Z"
     fill="white"
     id="path3797" />
  <path
     d="M215.324 59.62C213.704 64.12 211.904 67.54 207.764 68.08C207.044 68.17 205.784 68.26 205.154 68.26C204.704 68.26 204.344 68.44 204.344 68.8C204.344 69.34 204.884 69.52 206.054 69.52C210.284 69.52 215.234 69.25 216.224 69.25C217.214 69.25 221.084 69.52 223.244 69.52C224.054 69.52 224.594 69.34 224.594 68.8C224.594 68.44 224.324 68.26 223.694 68.26H222.794C221.264 68.26 219.374 67.45 219.374 65.65C219.374 64.03 219.824 61.87 220.634 59.62L226.034 43.69C226.214 43.24 226.484 42.97 226.934 42.97H246.284C246.734 42.97 246.914 43.15 247.094 43.51L255.464 65.65C256.004 67.09 255.464 67.9 254.924 68.08C254.564 68.17 254.294 68.35 254.294 68.71C254.294 69.25 255.284 69.25 256.994 69.34C263.204 69.52 269.774 69.52 271.124 69.52C272.114 69.52 272.924 69.34 272.924 68.8C272.924 68.35 272.564 68.26 272.024 68.26C271.124 68.26 269.774 68.17 268.424 67.72C266.534 67.18 263.924 65.74 260.684 57.73C255.194 44.05 241.064 6.87997 239.714 3.45997C238.634 0.66997 238.274 0.219971 237.734 0.219971C237.194 0.219971 236.834 0.759969 235.754 3.72997L215.324 59.62ZM227.924 39.73C227.654 39.73 227.474 39.55 227.654 39.1L235.574 14.8C236.024 13.45 236.474 13.45 236.924 14.8L245.474 39.1C245.564 39.46 245.564 39.73 245.114 39.73H227.924Z"
     fill="white"
     id="path3799" />
  <path
     style="fill:#420af2;fill-opacity:1;stroke-width:0.16376725"
     d="M 9.1621564,70.645013 C 5.2688528,70.157478 0.97618922,68.679547 0.25717234,67.579095 0.00231709,67.189041 -0.03107497,66.728542 -0.0188775,63.772181 -0.00424097,60.224663 0.31928244,54.937739 0.56085995,54.298284 0.67671617,53.991613 0.80542386,53.929203 1.2363372,53.970749 l 0.5323491,0.05133 0.1168503,1.750157 c 0.1413826,2.117591 0.4578266,3.552949 1.084699,4.920079 1.273602,2.777568 3.6556475,4.786905 6.9049294,5.824548 1.973177,0.630124 2.969706,0.765153 5.568086,0.754471 2.278415,-0.0094 2.688723,-0.05618 4.006201,-0.457014 2.369944,-0.721048 3.572957,-1.435577 5.252779,-3.119887 1.193396,-1.196585 1.612629,-1.753586 2.164662,-2.876014 0.980458,-1.993527 1.254919,-3.267171 1.235167,-5.731853 C 28.08279,52.681251 27.736923,51.13272 26.76699,49.109061 25.356947,46.16716 22.734585,43.431999 15.852669,37.725273 9.5107953,32.466367 6.7232304,29.577711 4.7019694,26.170195 3.1931592,23.626586 2.4734059,21.370342 2.1807263,18.266735 1.4443223,10.457828 5.3437022,4.1206647 12.48134,1.5264666 c 2.624404,-0.95384835 3.872012,-1.1583404 7.649649,-1.25383398 3.675802,-0.0929194 5.662338,0.0559842 8.413642,0.63065644 0.855684,0.17872894 2.255894,0.41584344 3.111578,0.52692104 l 1.555789,0.2019593 -0.01768,0.9747971 c -0.0915,5.0452959 -0.288995,10.0952065 -0.414391,10.5961225 -0.133372,0.532776 -0.216522,0.614128 -0.627692,0.614128 -0.535087,0 -0.568371,-0.06688 -0.815036,-1.637673 C 30.886969,9.3124128 30.259025,7.865746 28.903525,6.572818 26.671296,4.443633 23.05402,3.3727138 18.66131,3.540541 16.171924,3.6356501 14.588582,4.0581306 12.84529,5.0924202 11.401046,5.9492858 9.865064,7.6229335 9.1656463,9.1018608 8.3506747,10.825128 8.1532105,11.811068 8.1720554,14.062867 c 0.020226,2.416815 0.4756731,4.001681 1.6768518,5.835113 1.8230148,2.782579 3.4942098,4.375277 10.2564208,9.774682 5.876521,4.69221 9.258152,7.998676 11.336247,11.084267 4.836961,7.182006 4.286385,17.044095 -1.314851,23.552063 -2.570181,2.986245 -6.237714,4.990809 -10.99871,6.011568 -1.321655,0.283364 -2.332907,0.362106 -5.240551,0.408063 -1.981584,0.03132 -4.1079718,-0.0063 -4.7253066,-0.08361 z"
     id="path4614"
     inkscape:connector-curvature="0" />
  <path
     style="fill:#420af2;fill-opacity:1;stroke-width:0.16376725"
     d="m 109.05375,69.523073 c -0.60765,-0.137072 -0.90238,-0.572491 -0.65432,-0.966654 0.12453,-0.197872 0.49715,-0.322126 1.20366,-0.401374 1.80401,-0.202354 2.74524,-0.460899 3.19486,-0.877598 0.95942,-0.889158 1.42716,-2.729276 1.75309,-6.896767 0.29668,-3.793536 0.29881,-50.5914404 0.002,-52.7800056 -0.30802,-2.2742632 -0.90928,-3.4494642 -2.0781,-4.0617496 -0.64188,-0.3362502 -2.25639,-0.6811051 -3.2227,-0.6883608 -0.47162,-0.00354 -0.86514,-0.1046961 -1.02355,-0.2631015 -0.31419,-0.3141941 -0.31875,-0.4149154 -0.0362,-0.8012708 0.31356,-0.4288177 1.29044,-0.4722193 6.16013,-0.273689 2.90267,0.1183376 5.61579,0.1174625 8.92532,-0.00288 5.15657,-0.1875035 5.65565,-0.1379607 5.65565,0.5614276 0,0.5507226 -0.30284,0.7733727 -1.0563,0.7766031 -1.06548,0.00457 -2.88186,0.451586 -3.46967,0.8539006 -0.67347,0.4609409 -1.26781,1.5398792 -1.55784,2.8280188 -0.32006,1.4215907 -0.32615,52.4056192 -0.007,55.3979222 0.51321,4.8059 1.15254,5.603809 4.82375,6.0202 1.10199,0.124989 2.29093,0.248599 2.6421,0.27469 1.1657,0.08661 1.24242,1.06365 0.10183,1.296925 -0.29622,0.06058 -3.01591,0.04353 -6.04376,-0.0379 -4.91153,-0.132088 -8.83472,-0.106889 -13.36602,0.08585 -0.81065,0.03448 -1.68711,0.01459 -1.94769,-0.04418 z"
     id="path4616"
     inkscape:connector-curvature="0" />
  <path
     style="fill:#420af2;fill-opacity:1;stroke-width:0.16376725"
     d="m 108.67416,69.261979 c -0.27201,-0.257601 -0.31764,-0.404661 -0.1935,-0.623677 0.0893,-0.157626 0.27031,-0.286592 0.40217,-0.286592 0.13185,0 0.3677,-0.0671 0.5241,-0.149106 0.1564,-0.08201 0.79657,-0.233946 1.42258,-0.337638 0.62601,-0.103695 1.3517,-0.312955 1.61264,-0.465022 0.8982,-0.523443 1.46711,-2.146062 1.93434,-5.517041 0.22707,-1.638258 0.35203,-54.2433597 0.12918,-54.3810883 -0.0808,-0.049968 -0.147,-0.2458387 -0.147,-0.4352683 0,-0.6995627 -0.57246,-2.1286198 -1.09921,-2.7440095 -0.60544,-0.707322 -1.47229,-1.0644237 -3.16747,-1.3048564 -1.66533,-0.2361993 -1.69966,-0.2442234 -1.91554,-0.4477645 -0.30657,-0.289056 -0.24697,-0.6722233 0.12283,-0.7895921 0.18014,-0.057175 0.32753,-0.1628063 0.32753,-0.2347353 0,-0.071929 1.71342,-0.1125524 3.80759,-0.090274 2.09418,0.022278 5.2078,0.037441 6.91917,0.033696 2.43785,-0.00533 6.38917,0.013027 9.37567,0.043569 0.45199,0.00462 0.0433,1.1728725 -0.45036,1.287284 -0.1351,0.031315 -0.68934,0.1207413 -1.23164,0.1987251 -2.15646,0.3101051 -3.04023,0.8705243 -3.67529,2.3306015 -0.20402,0.4690671 -0.42913,0.9694222 -0.50024,1.1119 -0.17343,0.3475018 -0.17229,55.3135958 0.001,55.6495658 0.0748,0.144952 0.21757,0.853111 0.31719,1.573687 0.10332,0.747296 0.36397,1.685455 0.60671,2.183771 0.65639,1.347429 1.41871,1.708097 4.23647,2.004357 0.90072,0.0947 1.76564,0.241273 1.92204,0.325712 0.15641,0.08444 0.42374,0.153527 0.59408,0.153527 0.50758,0 0.74931,0.415068 0.47215,0.810759 -0.12848,0.18344 -0.28227,0.284866 -0.34174,0.225391 -0.0595,-0.05948 -0.10813,-0.03957 -0.10813,0.04424 0,0.09011 -1.25464,0.1346 -3.07064,0.108874 -3.7353,-0.05291 -13.41271,-0.04399 -16.33885,0.01507 -1.96046,0.03957 -2.1607,0.0159 -2.48798,-0.294056 z"
     id="path4618"
     inkscape:connector-curvature="0" />
  <path
     style="fill:#420af2;fill-opacity:1;stroke-width:0.16376725"
     d="m 148.68542,69.523759 c -0.60783,-0.137992 -0.90228,-0.573318 -0.65431,-0.96734 0.12453,-0.197872 0.49714,-0.322126 1.20365,-0.401374 2.7891,-0.31285 3.47422,-0.700421 4.06948,-2.302114 0.92698,-2.494251 1.01826,-4.769829 1.11839,-27.880046 0.0968,-22.331176 -0.0327,-30.4191351 -0.51215,-31.9853129 -0.6274,-2.0497089 -2.69986,-3.1370489 -5.98771,-3.141524 -0.98896,-0.00135 -1.30195,-0.1876604 -1.30195,-0.7749965 0,-0.7130786 0.45348,-0.7521352 6.55069,-0.5641875 3.92918,0.121118 7.07148,0.122742 10.31733,0.00533 8.43938,-0.3052714 13.05061,0.067332 16.94991,1.3696116 2.8971,0.9675646 4.90882,2.1877498 6.72628,4.0797499 2.02413,2.1071451 3.29358,4.3210994 4.0311,7.0303714 0.53082,1.949911 0.52632,5.83491 -0.01,8.330314 -1.05722,4.922468 -3.66428,9.339968 -8.32694,14.109519 l -2.01555,2.061756 3.6308,4.652701 c 9.29414,11.909985 13.88002,17.355657 16.98802,20.173038 1.94551,1.763596 4.48302,3.293834 6.69474,4.037237 l 1.02475,0.344441 0.77669,-0.397015 c 1.72157,-0.880001 3.12825,-2.615562 4.30459,-5.311012 0.34087,-0.781079 5.42528,-14.574747 11.29867,-30.652596 5.87339,-16.077849 10.89426,-29.6604589 11.1575,-30.1835761 0.46292,-0.91997379 0.49802,-0.94947167 1.07171,-0.9007199 0.55152,0.0468673 0.63009,0.125064 1.12017,1.1148895 0.28988,0.5854679 2.16439,5.3388123 4.16558,10.5629875 8.43375,22.016618 14.40639,37.473035 16.86482,43.643971 2.15814,5.417162 3.53312,8.002307 5.26299,9.895057 1.50873,1.650795 3.34195,2.459512 6.02056,2.655942 1.42185,0.104271 1.82353,0.245383 1.82353,0.64062 0,0.420389 -0.49607,0.696846 -1.42801,0.795817 -1.53211,0.162711 -16.43779,-0.168403 -16.96622,-0.376887 -0.57604,-0.227266 -0.54989,-0.814629 0.0495,-1.112378 0.58674,-0.291458 0.82162,-0.685593 0.82162,-1.378687 0,-0.688892 -8.35911,-22.987896 -8.77221,-23.400992 -0.21429,-0.214293 -1.54617,-0.246686 -10.1429,-0.246686 -9.01605,0 -9.92049,0.02426 -10.16903,0.272802 -0.28128,0.281283 -5.66671,15.935688 -6.38516,18.560431 -0.42752,1.561896 -0.67305,3.701314 -0.50268,4.380137 0.27673,1.10256 1.90073,1.924902 3.80139,1.924902 1.18496,0 1.54359,0.252821 1.2555,0.885099 -0.246,0.539904 -0.68669,0.572887 -5.1137,0.382709 -2.79164,-0.119925 -4.29827,-0.114072 -5.4862,0.02132 -3.61139,0.411585 -12.21989,0.132103 -14.58843,-0.473627 -5.08385,-1.30014 -7.54533,-3.90276 -20.65643,-21.840853 -2.3625,-3.232285 -4.45071,-5.985626 -4.64046,-6.118531 -0.28714,-0.201122 -1.33842,-0.245461 -6.26883,-0.264387 l -5.92384,-0.02274 0.003,9.744151 c 0.004,11.911782 0.19352,14.23271 1.29663,15.899625 0.6269,0.947315 1.45282,1.28789 3.75677,1.549143 1.09182,0.123805 2.27244,0.246447 2.62361,0.272538 1.1753,0.08733 1.24021,1.064102 0.0864,1.300084 -0.3047,0.06232 -3.02439,0.04458 -6.04376,-0.03943 -4.92749,-0.137096 -7.63488,-0.119322 -12.85927,0.08441 -0.90072,0.03513 -1.85088,0.01546 -2.11146,-0.0437 z m 96.62796,-30.077334 c 0.0828,-0.215661 -7.83058,-23.067068 -8.64489,-24.963913 -0.28108,-0.654753 -0.33699,-0.701718 -0.56449,-0.474214 -0.30217,0.302167 -8.44593,25.184734 -8.33911,25.479434 0.0581,0.160263 1.96094,0.20471 8.76414,0.20471 7.57905,0 8.70202,-0.03145 8.78435,-0.246017 z m -69.84429,-2.030417 c 1.89661,-0.487825 2.849,-1.046435 4.32065,-2.53422 1.06112,-1.072754 1.46455,-1.632119 2.08178,-2.886407 1.46851,-2.984229 2.00031,-5.607679 1.99185,-9.826035 -0.008,-4.069554 -0.62533,-7.016662 -2.07483,-9.907918 -1.82543,-3.6411243 -4.97932,-6.1920749 -9.04685,-7.317347 -1.16321,-0.3218007 -1.70499,-0.3626857 -4.83113,-0.3645801 -3.66407,-0.00222 -5.22086,0.1774902 -5.75938,0.6648454 -0.28672,0.2594803 -0.30001,0.9436252 -0.30001,15.4479287 v 15.176426 l 0.36848,0.34028 c 1.47193,1.359299 9.73186,2.11178 13.24944,1.207027 z"
     id="path4620"
     inkscape:connector-curvature="0" />
</svg>
